<svg width="86" height="20" viewBox="0 0 86 20" fill="none" xmlns="http://www.w3.org/2000/svg">
<path d="M4.84863 8.43262V8.47852L12.0488 15.5684V14.3818C12.0488 14.3284 12.042 14.2771 12.042 14.2236C12.042 14.1704 12.0488 14.1196 12.0488 14.0664V8.43262H15.1904V8.4375H18.1846C16.3239 9.69569 15.1027 11.8017 15.1025 14.1904C15.1025 16.6125 16.3598 18.7473 18.2656 19.9951H15.1904V19.998H12.1104L12.1064 20L12.1025 19.998H12.0488V19.9443L4.84863 12.8535V19.998H0V8.43262H4.84863ZM56.8164 8.49121C57.4419 8.49127 58.0366 8.60043 58.5977 8.78125C57.5425 9.49705 56.6989 10.4977 56.1973 11.6768C55.0029 11.9518 54.1088 12.9888 54.1035 14.249V19.998H50.9609V14.249C50.9649 11.0708 53.585 8.49121 56.8164 8.49121ZM18.1328 10.1543C20.4189 7.9029 24.125 7.90007 26.4111 10.1514C26.7136 10.4494 26.97 10.7756 27.1924 11.1143L24.8516 13.4219C24.849 13.4169 24.849 13.417 24.8516 13.417L21.4434 16.7705C22.3793 17.0685 23.4446 16.8498 24.1895 16.1191L27.8564 12.5049C28.4836 14.4888 28.0049 16.7398 26.4121 18.3086C24.1246 20.56 20.4174 20.5605 18.1299 18.3066C15.8441 16.0554 15.8444 12.4081 18.1328 10.1543ZM68.3203 8.41211V19.9795H65.1787V19.3428C64.3694 19.763 63.4481 19.9971 62.4678 19.9971C59.2357 19.9969 56.6135 17.4226 56.6133 14.2344C56.6133 11.0512 59.2355 8.47091 62.4678 8.4707C63.4481 8.4707 64.3694 8.71031 65.1787 9.12793V8.41211H68.3203ZM72.9277 8.43262V19.9971H69.7842V8.43262H72.9277ZM77.4316 8.43262V9.14551C78.2449 8.73035 79.163 8.48828 80.1455 8.48828C83.3743 8.48832 85.9957 11.0636 86.001 14.2471V19.9971H82.8584V14.2471C82.8559 12.775 81.6403 11.583 80.1455 11.583C78.6483 11.583 77.4355 12.7746 77.4316 14.249V19.9971H74.2881V8.43262H77.4316ZM44.0469 0V0.00390625C47.2653 0.020484 49.869 2.59241 49.8691 5.76562C49.8691 7.43505 49.1493 8.93154 48 9.9834C49.1494 11.0377 49.8691 12.5356 49.8691 14.2012C49.8691 17.3845 47.2559 19.9642 44.0244 19.9668H36.0547V16.8721H44.0244C45.5192 16.8696 46.7294 15.6782 46.7295 14.2012C46.7295 12.7291 45.5192 11.5374 44.0244 11.5322H36.0547V8.4375H44.0244C45.5192 8.42986 46.7295 7.2379 46.7295 5.76562C46.7294 4.2938 45.5178 3.09715 44.0244 3.09473H36.0547V0H44.0469ZM32.5068 5.27734V8.43555H35.2422V11.5293H32.5068V14.2109C32.5121 15.6806 33.7253 16.8701 35.2188 16.8701H35.2197V19.9648H35.2188C31.9888 19.9648 29.37 17.3895 29.3662 14.2109H29.3652V11.5293H28.7227C28.194 10.2687 27.3012 9.19682 26.1738 8.43555H29.3652V5.27734H32.5068ZM62.4697 11.5625C60.9725 11.5625 59.7568 12.7599 59.7568 14.2344C59.7571 15.7089 60.9726 16.9053 62.4697 16.9053C63.9645 16.9051 65.1785 15.7138 65.1797 14.2393V14.2285C65.1783 12.7569 63.9644 11.5627 62.4697 11.5625ZM23.3564 11.7842C22.3688 11.3564 21.166 11.5394 20.3516 12.3389C19.5371 13.1412 19.3538 14.3229 19.7881 15.3008L23.3564 11.7842ZM71.499 3C72.8801 3 74 4.11989 74 5.5C74 6.88154 72.88 8 71.499 8C70.1195 7.99977 69 6.8814 69 5.5C69 4.12003 70.1195 3.00023 71.499 3Z" fill="#424242"/>
</svg>
